<svg xmlns="http://www.w3.org/2000/svg" width="60" height="60" viewBox="-272 385.9 60 60"><path fill="#75B643" d="M-272 400.9h15v15h-15v-15z"/><path fill="#EB7F23" d="M-257 415.9h15v15h-15v-15z"/><path fill="#F5B819" d="M-257 400.9h15v15h-15v-15z"/><path fill="#FBE900" d="M-257 385.9h15v15h-15v-15z"/><path fill="#92267F" d="M-242 415.9h15v15h-15v-15z"/><path fill="#E30A7E" d="M-242 400.9h15v15h-15v-15z"/><path fill="#DF2228" d="M-242 385.9h15v15h-15v-15z"/><path fill="#096BB4" d="M-227 400.9h15v15h-15v-15z"/><path fill="#229CD8" d="M-227 385.9v15h15v-10.5c0-2.5-2-4.5-4.5-4.5H-227"/><path fill="#323080" d="M-227 430.9v-15h15v10.5c0 2.5-2 4.5-4.5 4.5H-227z"/><path fill="#C5D12E" d="M-257 385.9v15h-15v-10.5c0-2.5 2-4.5 4.5-4.5h10.5"/><path fill="#099547" d="M-257 430.9v-15h-15v10.5c0 2.5 2 4.5 4.5 4.5h10.5"/><path fill="#FFF" d="M-266.9 439.9c0-.6-.6-1.1-1.2-1.1-1.3 0-1.6 1.1-1.6 2.2 0 .9.4 1.9 1.4 1.9.8 0 1.3-.5 1.4-1.3h2.3c-.2 2-1.7 3.1-3.7 3.1-2.2 0-3.9-1.5-3.9-3.8s1.5-4 3.9-4c1.8 0 3.5 1 3.6 2.9l-2.2.1m5.5.9c0-.9.3-2.1 1.5-2.1s1.5 1.1 1.5 2.1c0 .9-.4 2-1.5 2s-1.5-1-1.5-2m-2.5 0c0 2.2 1.6 3.9 3.9 3.9s3.9-1.7 3.9-3.9-1.6-3.9-3.9-3.9-3.9 1.7-3.9 3.9m8.7-3.6h2.3v1c.4-.7 1.2-1.2 2.1-1.2.9 0 1.7.3 2.1 1.2.6-.8 1.3-1.2 2.3-1.2 2.3 0 2.6 1.8 2.6 3.2v4.4h-2.4v-4.3c0-.8-.4-1.3-1-1.3-1 0-1.1.8-1.1 2v3.6h-2.4v-4.2c0-.9-.3-1.4-.9-1.4-.9 0-1.2.5-1.2 2v3.6h-2.4v-7.4m14.9-2.8h2.4v3.8c.4-.8 1.4-1.2 2.2-1.2 2.5 0 2.7 1.8 2.7 2.8v4.7h-2.4V441c0-1 .1-2-1.2-2-.9 0-1.3.8-1.3 1.6v4h-2.4v-10.2m10.6 5.7c.1-.9.7-1.5 1.6-1.5.8 0 1.4.7 1.4 1.5h-3m5.4 1.3c.1-2.5-1.2-4.5-3.8-4.5-2.2 0-4 1.6-4 3.9 0 2.5 1.6 3.9 4 3.9 1.6 0 3.2-.7 3.7-2.4h-2.3c-.2.5-.8.8-1.4.8-1 0-1.6-.7-1.6-1.7h5.4m.8-4.2h2.3v1c.4-.7 1.2-1.2 2.1-1.2.9 0 1.7.3 2.1 1.2.6-.8 1.3-1.2 2.3-1.2 2.3 0 2.6 1.8 2.6 3.2v4.4h-2.4v-4.3c0-.8-.4-1.3-1-1.3-1 0-1.1.8-1.1 2v3.6h-2.4v-4.2c0-.9-.3-1.4-.9-1.4-.9 0-1.2.5-1.2 2v3.6h-2.4v-7.4"/></svg>